<svg id="visual" viewBox="0 0 900 600" width="900" height="600" xmlns="http://www.w3.org/2000/svg" xmlns:xlink="http://www.w3.org/1999/xlink" version="1.1"><rect x="0" y="0" width="900" height="600" fill="#6B9080"></rect><path d="M0 307L21.5 321C43 335 86 363 128.8 356.2C171.7 349.3 214.3 307.7 257.2 304.2C300 300.7 343 335.3 385.8 344.3C428.7 353.3 471.3 336.7 514.2 336.5C557 336.3 600 352.7 642.8 345.5C685.7 338.3 728.3 307.7 771.2 305.3C814 303 857 329 878.5 342L900 355L900 601L878.5 601C857 601 814 601 771.2 601C728.3 601 685.7 601 642.8 601C600 601 557 601 514.2 601C471.3 601 428.7 601 385.8 601C343 601 300 601 257.2 601C214.3 601 171.7 601 128.8 601C86 601 43 601 21.5 601L0 601Z" fill="#cce3de"></path><path d="M0 394L21.5 400.7C43 407.3 86 420.7 128.8 419.5C171.7 418.3 214.3 402.7 257.2 407C300 411.3 343 435.7 385.8 431.5C428.7 427.3 471.3 394.7 514.2 389C557 383.3 600 404.7 642.8 410.2C685.7 415.7 728.3 405.3 771.2 394.2C814 383 857 371 878.5 365L900 359L900 601L878.5 601C857 601 814 601 771.2 601C728.3 601 685.7 601 642.8 601C600 601 557 601 514.2 601C471.3 601 428.7 601 385.8 601C343 601 300 601 257.2 601C214.3 601 171.7 601 128.8 601C86 601 43 601 21.5 601L0 601Z" fill="#b7d3c9"></path><path d="M0 452L21.5 465.3C43 478.7 86 505.3 128.8 516.2C171.7 527 214.3 522 257.2 513.7C300 505.3 343 493.7 385.8 484.2C428.7 474.7 471.3 467.3 514.2 475.5C557 483.7 600 507.3 642.8 518.7C685.7 530 728.3 529 771.2 524.3C814 519.7 857 511.3 878.5 507.2L900 503L900 601L878.5 601C857 601 814 601 771.2 601C728.3 601 685.7 601 642.8 601C600 601 557 601 514.2 601C471.3 601 428.7 601 385.8 601C343 601 300 601 257.2 601C214.3 601 171.7 601 128.8 601C86 601 43 601 21.5 601L0 601Z" fill="#a4c3b2"></path></svg>